<svg id="Layer_1" data-name="Layer 1" xmlns="http://www.w3.org/2000/svg" viewBox="0 0 28 28"><defs><style>.cls-1,.cls-2{fill:#85c441;}.cls-2{fill-rule:evenodd;}</style></defs><path class="cls-1" d="M14.0688,18.7638c.6121,1.13,1.13,1.4879,1.8099,1.3504a11.44238,11.44238,0,0,0-1.857,3.4466,11.66621,11.66621,0,0,0-1.857-3.4466C12.7918,20.2027,13.4378,19.794,14.0688,18.7638Z"/><path class="cls-1" d="M20.0448,8.98715C14.5735,10.411,14.647,12.3584,14.0217,14.1269c-.5443-1.7195-1.0585-4.20747-6.09653-5.12091C13.7335,6.68942,20.0448,8.98715,20.0448,8.98715Z"/><path class="cls-2" d="M5.66136,11.4807A9.05171,9.05171,0,0,1,12.9953,17.566c.5556,1.5425-2.4786,2.5651-3.70278,2.7554a5.44635,5.44635,0,0,1-3.07933-.4332,4.69166,4.69166,0,0,1-2.09433-1.8891,4.63156,4.63156,0,0,1-.66483-2.341,7.58767,7.58767,0,0,1,.356-2.1904C4.00774,12.9517,4.38819,11.3734,5.66136,11.4807Zm.62151,1.616a6.43957,6.43957,0,0,1,5.21883,4.3299c.3955,1.098-1.7647,1.825-2.63482,1.9606a3.86827,3.86827,0,0,1-2.19226-.3089,3.33449,3.33449,0,0,1-1.48976-1.3447,3.28793,3.28793,0,0,1-.47273-1.6668,5.41654,5.41654,0,0,1,.25237-1.5576C5.10764,14.1439,5.377,13.0214,6.28287,13.0967Z"/><path class="cls-1" d="M8.5599,18.4549a2.31845,2.31845,0,1,0-2.31844-2.3185A2.3185,2.3185,0,0,0,8.5599,18.4549Z"/><path class="cls-2" d="M24.1882,13.4658a7.5788,7.5788,0,0,1,.3559,2.1904,4.62651,4.62651,0,0,1-.6648,2.3411,4.682,4.682,0,0,1-2.0943,1.889,5.43015,5.43015,0,0,1-3.0793.4332c-1.2242-.1903-4.2584-1.2129-3.7028-2.7554a9.05238,9.05238,0,0,1,7.3339-6.0852C23.61,11.3734,23.9885,12.9517,24.1882,13.4658Zm-1.1564,1.0434a5.41825,5.41825,0,0,1,.2524,1.5576,3.293,3.293,0,0,1-.4728,1.6668,3.335,3.335,0,0,1-1.4897,1.3447,3.8669,3.8669,0,0,1-2.1923.3089c-.8701-.1356-3.0304-.8626-2.6348-1.9606a6.43961,6.43961,0,0,1,5.2188-4.3299C22.6193,13.0214,22.8886,14.1438,23.0318,14.5092Z"/><path class="cls-1" d="M19.4383,18.4549a2.31845,2.31845,0,1,0-2.3184-2.3185A2.31846,2.31846,0,0,0,19.4383,18.4549Z"/><path class="cls-1" d="M13.3681,15.6769c-1.1903-1.8721-2.0359-3.4956-4.81767-4.4241-2.309-.7684-5.92513-1.36165-6.23024-4.98528C4.714,12.0872,12.5733,7.84391,13.3681,15.6769Z"/><path class="cls-1" d="M13.3681,15.6769c-.3578-.5292-.7025-1.066-1.0792-1.5801a7.84377,7.84377,0,0,0-1.2807-1.3956,6.66941,6.66941,0,0,0-1.599-.9907,13.08168,13.08168,0,0,0-1.79675-.6083,11.5997,11.5997,0,0,1-3.569-1.47849A4.4489,4.4489,0,0,1,2.70062,8.17727a4.39,4.39,0,0,1-.38986-.91909A5.77524,5.77524,0,0,1,2.13,6.28259L2,5l.49156,1.19407a5.34554,5.34554,0,0,0,.98878,1.59522A5.23622,5.23622,0,0,0,4.98328,8.91556,21.20882,21.20882,0,0,0,8.654,10.1209a10.66441,10.66441,0,0,1,1.8457.6969,5.00518,5.00518,0,0,1,1.5726,1.2035,5.09008,5.09008,0,0,1,.9399,1.7289,7.57536,7.57536,0,0,1,.2354.953,9.63869,9.63869,0,0,1,.1205.9737,9.0784,9.0784,0,0,0-.4482-1.889,4.92107,4.92107,0,0,0-.985-1.6386,4.81354,4.81354,0,0,0-1.5388-1.1112,10.44264,10.44264,0,0,0-1.81932-.6309c-.62528-.1657-1.26-.3089-1.89092-.48968a10.35722,10.35722,0,0,1-1.857-.68932A5.59869,5.59869,0,0,1,3.21667,8.03978,5.71511,5.71511,0,0,1,2.145,6.34285l.36161-.08663a5.24133,5.24133,0,0,0,.1582.90591,3.98306,3.98306,0,0,0,.34843.84375A4.11967,4.11967,0,0,0,4.24311,9.35251a7.61207,7.61207,0,0,0,1.65361.872c.58574.2317,1.18842.4313,1.79675.6215a13.939,13.939,0,0,1,1.80994.6667,6.41492,6.41492,0,0,1,1.616,1.066A12.53022,12.53022,0,0,1,13.3681,15.6769Z"/><path class="cls-1" d="M14.6338,15.6769c1.1903-1.8721,2.0359-3.4956,4.8177-4.4241,2.309-.7684,5.9251-1.36165,6.2302-4.98528C23.2879,12.0872,15.4286,7.84391,14.6338,15.6769Z"/><path class="cls-1" d="M14.6338,15.6769a12.66444,12.66444,0,0,1,2.2488-3.102,6.51679,6.51679,0,0,1,1.6159-1.066,13.40318,13.40318,0,0,1,1.8099-.6667c.6084-.1921,1.211-.3917,1.7968-.6215a7.61432,7.61432,0,0,0,1.6536-.872,4.10026,4.10026,0,0,0,1.2298-1.34662,3.98507,3.98507,0,0,0,.3485-.84375,5.24436,5.24436,0,0,0,.1582-.90591l.3616.08663A5.7235,5.7235,0,0,1,24.7852,8.036a5.59839,5.59839,0,0,1-1.6121,1.18842,10.50372,10.50372,0,0,1-1.8571.68932c-.6309.18079-1.2656.32579-1.8909.48969a10.43473,10.43473,0,0,0-1.8193.6309,4.872,4.872,0,0,0-1.5388,1.1112,5.00429,5.00429,0,0,0-.985,1.6386,9.05,9.05,0,0,0-.4482,1.8928c.0264-.324.0603-.6498.1186-.97a7.6445,7.6445,0,0,1,.2355-.953,5.08983,5.08983,0,0,1,.9398-1.7289,5.036,5.036,0,0,1,1.5726-1.2035,10.676,10.676,0,0,1,1.8457-.6969,21.20515,21.20515,0,0,0,3.6707-1.20532A5.24424,5.24424,0,0,0,24.5197,7.793a5.40971,5.40971,0,0,0,.9888-1.59523L26,5.00372l-.1299,1.28259a5.60155,5.60155,0,0,1-.1808.97559,4.43785,4.43785,0,0,1-.3899.91909,4.469,4.469,0,0,1-1.3429,1.44645,11.489,11.489,0,0,1-3.569,1.47846,12.66666,12.66666,0,0,0-1.7967.6083,6.673,6.673,0,0,0-1.599.9907,7.84377,7.84377,0,0,0-1.2807,1.3956C15.3363,14.6109,14.9897,15.1476,14.6338,15.6769Z"/></svg>