<svg width="28" height="28" viewBox="0 0 28 28" fill="none" xmlns="http://www.w3.org/2000/svg">
<path d="M14.0688 18.7638C14.6809 19.8938 15.1988 20.2517 15.8787 20.1142C15.0933 21.1463 14.6319 21.9128 14.0217 23.5608C13.468 21.9298 12.9256 21.2047 12.1647 20.1142C12.7918 20.2027 13.4378 19.794 14.0688 18.7638Z" fill="#15B76E"/>
<path d="M20.0448 8.98715C14.5735 10.411 14.647 12.3584 14.0217 14.1269C13.4774 12.4074 12.9632 9.91943 7.92517 9.00599C13.7335 6.68942 20.0448 8.98715 20.0448 8.98715Z" fill="#15B76E"/>
<path fill-rule="evenodd" clip-rule="evenodd" d="M5.66136 11.4807C7.88187 11.6653 11.4867 13.383 12.9953 17.566C13.5509 19.1085 10.5167 20.1311 9.29252 20.3214C8.22088 20.4871 7.11156 20.3082 6.21319 19.8882C5.27903 19.4682 4.57841 18.7694 4.11886 17.9991C3.66308 17.227 3.45026 16.3964 3.45403 15.6581C3.45215 14.916 3.61223 14.0836 3.80999 13.4677C4.00774 12.9517 4.38819 11.3734 5.66136 11.4807ZM6.28287 13.0967C7.86303 13.2285 10.4282 14.449 11.5017 17.4266C11.8972 18.5246 9.737 19.2516 8.86688 19.3872C8.10411 19.5059 7.31497 19.3778 6.67462 19.0783C6.00978 18.7789 5.51069 18.2817 5.18486 17.7336C4.86092 17.1836 4.70836 16.5941 4.71213 16.0668C4.71025 15.5394 4.82513 14.9462 4.9645 14.5092C5.10764 14.1439 5.37697 13.0214 6.28287 13.0967Z" fill="#15B76E"/>
<path d="M8.5599 18.4549C9.84035 18.4549 10.8784 17.4169 10.8784 16.1364C10.8784 14.856 9.84035 13.818 8.5599 13.818C7.27946 13.818 6.24146 14.856 6.24146 16.1364C6.24146 17.4169 7.27946 18.4549 8.5599 18.4549Z" fill="#15B76E"/>
<path fill-rule="evenodd" clip-rule="evenodd" d="M24.1882 13.4658C24.3859 14.0798 24.546 14.9142 24.5441 15.6562C24.5479 16.3964 24.3351 17.2251 23.8793 17.9973C23.4216 18.7676 22.7191 19.4663 21.785 19.8863C20.8866 20.3063 19.7773 20.4871 18.7057 20.3195C17.4815 20.1292 14.4473 19.1066 15.0029 17.5641C16.5115 13.3811 20.1144 11.6653 22.3368 11.4789C23.61 11.3734 23.9885 12.9517 24.1882 13.4658ZM23.0318 14.5092C23.1712 14.9462 23.286 15.5394 23.2842 16.0668C23.2879 16.5923 23.1354 17.1836 22.8114 17.7336C22.4856 18.2816 21.9865 18.7789 21.3217 19.0783C20.6832 19.3778 19.8922 19.5058 19.1294 19.3872C18.2593 19.2516 16.099 18.5246 16.4946 17.4266C17.5681 14.449 20.1333 13.2285 21.7134 13.0967C22.6193 13.0214 22.8886 14.1438 23.0318 14.5092Z" fill="#15B76E"/>
<path d="M19.4383 18.4549C20.7188 18.4549 21.7568 17.4169 21.7568 16.1364C21.7568 14.856 20.7188 13.818 19.4383 13.818C18.1579 13.818 17.1199 14.856 17.1199 16.1364C17.1199 17.4169 18.1579 18.4549 19.4383 18.4549Z" fill="#15B76E"/>
<path d="M13.3681 15.6769C12.1778 13.8048 11.3322 12.1813 8.55043 11.2528C6.2414 10.4844 2.6253 9.89115 2.32019 6.26752C4.71397 12.0872 12.5733 7.84391 13.3681 15.6769Z" fill="#15B76E"/>
<path d="M13.3681 15.6769C13.0103 15.1477 12.6656 14.6109 12.2889 14.0968C11.9141 13.5826 11.4904 13.1061 11.0082 12.7012C10.5261 12.2962 9.98555 11.9648 9.40924 11.7105C8.83669 11.4506 8.22647 11.2792 7.61249 11.1022C6.39017 10.7537 5.1283 10.3827 4.04347 9.62371C3.50671 9.24704 3.02645 8.76112 2.70062 8.17727C2.53488 7.88723 2.40681 7.57836 2.31076 7.25818C2.22036 6.938 2.16385 6.6103 2.12995 6.28259L2 5L2.49156 6.19407C2.73264 6.77792 3.0547 7.32786 3.48034 7.78929C3.90222 8.25449 4.42015 8.6274 4.98328 8.91556C6.11708 9.49941 7.40343 9.74613 8.654 10.1209C9.28117 10.3055 9.90834 10.5164 10.4997 10.8178C11.0892 11.1154 11.6411 11.5127 12.0723 12.0213C12.5036 12.5279 12.8088 13.1268 13.0122 13.7502C13.112 14.0629 13.1892 14.3811 13.2476 14.7032C13.3078 15.029 13.3417 15.353 13.3681 15.6769C13.2796 15.0328 13.1421 14.3943 12.9199 13.7879C12.6939 13.1833 12.3699 12.6164 11.9349 12.1493C11.5073 11.6747 10.9724 11.3093 10.3961 11.0381C9.81793 10.7632 9.20207 10.5729 8.57678 10.4072C7.9515 10.2415 7.3168 10.0983 6.68586 9.91752C6.05493 9.7386 5.42588 9.52954 4.82885 9.2282C4.2337 8.93063 3.67433 8.53512 3.21667 8.03978C2.75712 7.54634 2.40304 6.9606 2.14502 6.34285L2.50663 6.25622C2.53488 6.56321 2.58385 6.86644 2.66483 7.16213C2.74959 7.45594 2.86447 7.74033 3.01326 8.00588C3.30707 8.54077 3.74025 8.99278 4.24311 9.35251C4.74598 9.71412 5.31099 9.99286 5.89672 10.2245C6.48246 10.4562 7.08514 10.6558 7.69347 10.846C8.29992 11.04 8.91956 11.2321 9.50341 11.5127C10.0873 11.7896 10.6429 12.138 11.1194 12.5787C12.0893 13.447 12.7202 14.5846 13.3681 15.6769Z" fill="#15B76E"/>
<path d="M14.6338 15.6769C15.8241 13.8048 16.6697 12.1813 19.4515 11.2528C21.7605 10.4844 25.3766 9.89115 25.6817 6.26752C23.2879 12.0872 15.4286 7.84391 14.6338 15.6769Z" fill="#15B76E"/>
<path d="M14.6338 15.6769C15.2836 14.5845 15.9126 13.4469 16.8826 12.5749C17.359 12.1361 17.9146 11.7877 18.4985 11.5089C19.0823 11.2264 19.702 11.0343 20.3084 10.8422C20.9168 10.6501 21.5194 10.4505 22.1052 10.2207C22.6909 9.98904 23.2559 9.7103 23.7588 9.34869C24.2617 8.98897 24.6948 8.53884 24.9886 8.00207C25.1374 7.73652 25.2523 7.45212 25.3371 7.15832C25.4181 6.86262 25.467 6.5594 25.4953 6.25241L25.8569 6.33904C25.5989 6.95491 25.2467 7.54064 24.7852 8.03597C24.3276 8.5313 23.7682 8.92682 23.1731 9.22439C22.576 9.52385 21.947 9.73479 21.316 9.91371C20.6851 10.0945 20.0504 10.2395 19.4251 10.4034C18.7998 10.5691 18.184 10.7593 17.6058 11.0343C17.0295 11.3074 16.4946 11.6728 16.067 12.1455C15.6339 12.6126 15.3099 13.1814 15.082 13.7841C14.8579 14.3943 14.7223 15.0328 14.6338 15.6769C14.6602 15.3529 14.6941 15.0271 14.7524 14.7069C14.8108 14.3868 14.888 14.0666 14.9879 13.7539C15.1913 13.1305 15.4964 12.5316 15.9277 12.025C16.359 11.5165 16.9108 11.121 17.5003 10.8215C18.0917 10.5202 18.7189 10.3092 19.346 10.1246C20.5966 9.74986 21.8829 9.50313 23.0167 8.91928C23.5818 8.63112 24.0978 8.25633 24.5197 7.79302C24.9434 7.3297 25.2674 6.78164 25.5085 6.19779L26 5.00372L25.8701 6.28631C25.8362 6.61402 25.7815 6.94173 25.6893 7.2619C25.5932 7.58019 25.4651 7.89095 25.2994 8.18099C24.9717 8.76484 24.4933 9.25076 23.9565 9.62744C22.8736 10.3883 21.6098 10.7593 20.3875 11.1059C19.7735 11.281 19.1652 11.4524 18.5908 11.7142C18.0145 11.9685 17.4739 12.3 16.9918 12.7049C16.5096 13.1098 16.0859 13.5863 15.7111 14.1005C15.3363 14.6109 14.9897 15.1476 14.6338 15.6769Z" fill="#15B76E"/>
</svg>
