<svg width="129" height="178" viewBox="0 0 129 178" fill="none" xmlns="http://www.w3.org/2000/svg">
<path d="M64.86 73.55C68.11 79.55 70.86 81.45 74.47 80.72C70.3 86.2 67.85 90.27 64.61 99.02C61.67 90.36 58.79 86.51 54.75 80.72C58.08 81.19 61.51 79.02 64.86 73.55Z" fill="#3E4041"/>
<path d="M96.5902 21.64C67.5402 29.2 67.9302 39.54 64.6102 48.93C61.7202 39.8 58.9902 26.59 32.2402 21.74C63.0802 9.44003 96.5902 21.64 96.5902 21.64Z" fill="#3E4041"/>
<path d="M27.14 87.2399C28.48 87.1299 41.72 89.7299 50.82 85.8899C60.97 100.89 82.88 146.21 86.5 177.27C65.27 177.27 60.68 177.27 39.7 177.27C39.7 177.27 38.98 176.04 37.78 173.85C37.19 172.75 36.43 171.42 35.68 169.84C34.93 168.26 34.1 166.46 33.23 164.48C32.35 162.5 31.54 160.29 30.66 157.96C29.79 155.63 29.03 153.1 28.23 150.49C27.86 149.18 27.53 147.83 27.17 146.46C26.81 145.1 26.44 143.72 26.19 142.3C25.91 140.88 25.63 139.45 25.35 138.03C25.09 136.59 24.89 135.14 24.66 133.69C24.45 132.23 24.26 130.78 24.15 129.32C24.03 127.86 23.85 126.42 23.75 124.97C23.56 122.08 23.49 119.24 23.49 116.49C23.43 113.74 23.64 111.08 23.77 108.57C23.94 106.06 24.17 103.7 24.47 101.53C24.7 99.3599 25.08 97.3899 25.35 95.6299C25.65 93.8799 25.97 92.3699 26.22 91.1299C26.79 88.6499 27.14 87.2399 27.14 87.2399Z" fill="#3E4041"/>
<path d="M22.6199 85.6299C15.3099 114.74 18.0799 135.6 25.1799 155.99C25.1799 155.99 24.9099 155.79 24.4099 155.4C23.8999 155 23.1699 154.41 22.3199 153.55C21.4699 152.7 20.4399 151.65 19.4099 150.34C18.3399 149.05 17.1899 147.53 16.0799 145.81C13.7799 142.39 11.4799 138.16 9.37988 133.45C8.34988 131.1 7.36988 128.62 6.50988 126.05C5.64988 123.48 4.85988 120.84 4.21988 118.15C3.57988 115.46 3.06988 112.73 2.73988 110C2.41988 107.28 2.24988 104.55 2.34988 101.89C2.46988 99.2199 2.75988 96.6299 3.48988 94.1799C4.18988 91.7599 5.18988 89.4599 6.75988 87.7199C8.26988 85.9699 10.1099 84.7199 11.8899 84.2699C12.7399 83.9299 13.5899 83.8699 14.3499 83.7899C15.0999 83.6599 15.8099 83.7699 16.4299 83.8099C17.6899 83.8199 18.5399 84.1699 19.1799 84.2899C19.8099 84.4299 20.1299 84.5099 20.1299 84.5099" fill="#3E4041"/>
<path d="M98.5104 87.2399C97.2504 87.1299 87.4704 89.2699 78.1404 85.8899C69.2004 99.9899 46.0904 146.21 42.6904 177.27C52.0604 155.35 82.2504 157.52 86.7104 177.27C86.7104 177.27 87.3904 176.04 88.5204 173.85C89.0704 172.75 89.7904 171.42 90.5004 169.84C91.2004 168.26 91.9904 166.46 92.8004 164.48C93.6304 162.5 94.3904 160.29 95.2104 157.96C96.0304 155.63 96.7404 153.1 97.5004 150.49C97.8404 149.18 98.1604 147.83 98.5004 146.46C98.8404 145.1 99.1904 143.72 99.4204 142.3C99.6804 140.88 99.9404 139.45 100.21 138.03C100.46 136.59 100.64 135.14 100.86 133.69C101.06 132.23 101.23 130.78 101.34 129.32C101.46 127.86 101.62 126.42 101.71 124.97C101.89 122.08 101.96 119.24 101.95 116.49C102.01 113.74 101.81 111.08 101.69 108.57C101.53 106.06 101.31 103.7 101.03 101.53C100.81 99.3599 100.46 97.3899 100.2 95.6299C99.9204 93.8799 99.6104 92.3699 99.3804 91.1299C98.8404 88.6499 98.5104 87.2399 98.5104 87.2399Z" fill="#3E4041"/>
<path fill-rule="evenodd" clip-rule="evenodd" d="M20.2203 34.88C32.0103 35.86 51.1503 44.98 59.1603 67.19C62.1103 75.38 46.0003 80.81 39.5003 81.82C33.8103 82.7 27.9203 81.75 23.1503 79.52C18.1903 77.29 14.4703 73.58 12.0303 69.49C9.61026 65.39 8.48026 60.98 8.50026 57.06C8.49026 53.12 9.34026 48.7 10.3903 45.43C11.4403 42.69 13.4603 34.31 20.2203 34.88ZM23.5203 43.46C31.9103 44.16 45.5303 50.64 51.2303 66.45C53.3303 72.28 41.8603 76.14 37.2403 76.86C33.1903 77.49 29.0003 76.81 25.6003 75.22C22.0703 73.63 19.4203 70.99 17.6903 68.08C15.9703 65.16 15.1603 62.03 15.1803 59.23C15.1703 56.43 15.7803 53.28 16.5203 50.96C17.2803 49.02 18.7103 43.06 23.5203 43.46Z" fill="#3E4041"/>
<path d="M35.6098 71.91C42.4084 71.91 47.9198 66.3987 47.9198 59.6C47.9198 52.8014 42.4084 47.29 35.6098 47.29C28.8112 47.29 23.2998 52.8014 23.2998 59.6C23.2998 66.3987 28.8112 71.91 35.6098 71.91Z" fill="#3E4041"/>
<path fill-rule="evenodd" clip-rule="evenodd" d="M118.59 45.42C119.64 48.68 120.49 53.11 120.48 57.05C120.5 60.98 119.37 65.38 116.95 69.48C114.52 73.57 110.79 77.28 105.83 79.51C101.06 81.74 95.1699 82.7 89.4799 81.81C82.9799 80.8 66.8699 75.37 69.8199 67.18C77.8299 44.97 96.9599 35.86 108.76 34.87C115.52 34.31 117.53 42.69 118.59 45.42ZM112.45 50.96C113.19 53.28 113.8 56.43 113.79 59.23C113.81 62.02 113 65.16 111.28 68.08C109.55 70.99 106.9 73.63 103.37 75.22C99.9799 76.81 95.7799 77.49 91.7299 76.86C87.1099 76.14 75.6399 72.28 77.7399 66.45C83.4399 50.64 97.0599 44.16 105.45 43.46C110.26 43.06 111.69 49.02 112.45 50.96Z" fill="#3E4041"/>
<path d="M93.3706 71.91C100.169 71.91 105.681 66.3987 105.681 59.6C105.681 52.8014 100.169 47.29 93.3706 47.29C86.5719 47.29 81.0605 52.8014 81.0605 59.6C81.0605 66.3987 86.5719 71.91 93.3706 71.91Z" fill="#3E4041"/>
<path d="M61.1405 57.16C54.8205 47.22 50.3305 38.5999 35.5605 33.6699C23.3005 29.5899 4.10047 26.44 2.48047 7.19995C15.1905 38.1 56.9205 15.57 61.1405 57.16Z" fill="#3E4041"/>
<path d="M61.1403 57.16C59.2403 54.35 57.4103 51.5 55.4103 48.77C53.4203 46.04 51.1703 43.51 48.6103 41.36C46.0503 39.21 43.1803 37.45 40.1203 36.1C37.0803 34.72 33.8403 33.81 30.5803 32.87C24.0903 31.02 17.3903 29.05 11.6303 25.02C8.78027 23.02 6.23027 20.44 4.50027 17.34C3.62027 15.8 2.94027 14.16 2.43027 12.46C1.95027 10.76 1.65027 9.01997 1.47027 7.27997L0.780273 0.469971L3.39027 6.80997C4.67027 9.90997 6.38027 12.83 8.64027 15.28C10.8803 17.75 13.6303 19.73 16.6203 21.26C22.6403 24.36 29.4703 25.67 36.1103 27.66C39.4403 28.64 42.7703 29.76 45.9103 31.36C49.0403 32.94 51.9703 35.05 54.2603 37.75C56.5503 40.44 58.1703 43.62 59.2503 46.93C59.7803 48.59 60.1903 50.28 60.5003 51.99C60.8203 53.72 61.0003 55.44 61.1403 57.16C60.6703 53.74 59.9403 50.35 58.7603 47.13C57.5603 43.92 55.8403 40.91 53.5303 38.43C51.2603 35.91 48.4203 33.97 45.3603 32.53C42.2903 31.07 39.0203 30.06 35.7003 29.18C32.3803 28.3 29.0103 27.54 25.6603 26.58C22.3103 25.63 18.9703 24.52 15.8003 22.92C12.6403 21.34 9.67027 19.24 7.24027 16.61C4.80027 13.99 2.92027 10.88 1.55027 7.59997L3.47027 7.13997C3.62027 8.76997 3.88027 10.38 4.31027 11.95C4.76027 13.51 5.37027 15.02 6.16027 16.43C7.72027 19.27 10.0203 21.67 12.6903 23.58C15.3603 25.5 18.3603 26.98 21.4703 28.21C24.5803 29.44 27.7803 30.5 31.0103 31.51C34.2303 32.54 37.5203 33.56 40.6203 35.05C43.7203 36.52 46.6703 38.37 49.2003 40.71C54.3503 45.32 57.7003 51.36 61.1403 57.16Z" fill="#3E4041"/>
<path d="M67.8604 57.16C74.1804 47.22 78.6704 38.5999 93.4404 33.6699C105.7 29.5899 124.9 26.44 126.52 7.19995C113.81 38.1 72.0804 15.57 67.8604 57.16Z" fill="#3E4041"/>
<path d="M67.8604 57.16C71.3104 51.36 74.6504 45.32 79.8004 40.69C82.3304 38.36 85.2803 36.51 88.3803 35.03C91.4803 33.53 94.7703 32.51 97.9903 31.49C101.22 30.47 104.42 29.41 107.53 28.19C110.64 26.96 113.64 25.48 116.31 23.56C118.98 21.65 121.28 19.26 122.84 16.41C123.63 15 124.24 13.49 124.69 11.93C125.12 10.36 125.38 8.74999 125.53 7.11999L127.45 7.57999C126.08 10.85 124.21 13.96 121.76 16.59C119.33 19.22 116.36 21.32 113.2 22.9C110.03 24.49 106.69 25.61 103.34 26.56C99.9903 27.52 96.6204 28.29 93.3004 29.16C89.9804 30.04 86.7104 31.05 83.6404 32.51C80.5804 33.96 77.7404 35.9 75.4704 38.41C73.1704 40.89 71.4503 43.91 70.2403 47.11C69.0503 50.35 68.3304 53.74 67.8604 57.16C68.0004 55.44 68.1803 53.71 68.4903 52.01C68.8003 50.31 69.2103 48.61 69.7403 46.95C70.8203 43.64 72.4404 40.46 74.7304 37.77C77.0204 35.07 79.9504 32.97 83.0804 31.38C86.2204 29.78 89.5503 28.66 92.8803 27.68C99.5203 25.69 106.35 24.38 112.37 21.28C115.37 19.75 118.11 17.76 120.35 15.3C122.6 12.84 124.32 9.92999 125.6 6.82999L128.21 0.48999L127.52 7.29999C127.34 9.03999 127.05 10.78 126.56 12.48C126.05 14.17 125.37 15.82 124.49 17.36C122.75 20.46 120.21 23.04 117.36 25.04C111.61 29.08 104.9 31.05 98.4104 32.89C95.1504 33.82 91.9204 34.73 88.8704 36.12C85.8104 37.47 82.9403 39.23 80.3803 41.38C77.8203 43.53 75.5704 46.06 73.5804 48.79C71.5904 51.5 69.7504 54.35 67.8604 57.16Z" fill="#3E4041"/>
<path d="M103.06 85.6299C110.37 114.74 107.6 135.6 100.5 155.99C100.5 155.99 100.77 155.79 101.27 155.4C101.78 155 102.51 154.41 103.36 153.55C104.21 152.7 105.24 151.65 106.27 150.34C107.34 149.05 108.49 147.53 109.6 145.81C111.9 142.39 114.2 138.16 116.3 133.45C117.33 131.1 118.31 128.62 119.17 126.05C120.03 123.48 120.82 120.84 121.46 118.15C122.1 115.46 122.61 112.73 122.94 110C123.26 107.28 123.43 104.55 123.33 101.89C123.21 99.2199 122.92 96.6299 122.19 94.1799C121.49 91.7599 120.49 89.4599 118.92 87.7199C117.41 85.9699 115.57 84.7199 113.79 84.2699C112.94 83.9299 112.09 83.8699 111.33 83.7899C110.58 83.6599 109.87 83.7699 109.25 83.8099C107.99 83.8199 107.14 84.1699 106.5 84.2899C105.87 84.4299 105.55 84.5099 105.55 84.5099" fill="#3E4041"/>
</svg>
