<?xml version="1.0" encoding="UTF-8"?> <!-- Generator: Adobe Illustrator 24.1.0, SVG Export Plug-In . SVG Version: 6.00 Build 0) --> <svg xmlns="http://www.w3.org/2000/svg" xmlns:xlink="http://www.w3.org/1999/xlink" version="1.1" id="Layer_1" x="0px" y="0px" viewBox="0 0 700 250" style="enable-background:new 0 0 700 250;" xml:space="preserve"> <style type="text/css"> .st0{fill:#8DC73F;stroke:#8DC73F;stroke-miterlimit:10;} .st1{fill:#3E4041;stroke:#3E4041;stroke-width:10;stroke-miterlimit:10;} .st2{fill:#3E4041;} .st3{fill-rule:evenodd;clip-rule:evenodd;fill:#3E4041;} </style> <g> <g> <g> <path class="st0" d="M195.05,194.83c-4.32,0-8.32-0.42-11.87-1.24c-3.56-0.82-6.76-1.84-9.53-3.03c-2.78-1.18-5.2-2.38-7.2-3.56 c-1.98-1.16-3.53-2.05-4.64-2.66l-0.66-0.36l3.82-7.08l0.7,0.48c1.6,1.1,3.55,2.24,5.8,3.39c2.24,1.15,4.68,2.22,7.26,3.18 c2.55,0.95,5.26,1.73,8.07,2.34c5.96,1.28,11.96,1.25,18.29-0.53c3.36-0.94,6.47-2.39,9.25-4.32c2.75-1.91,5.04-4.4,6.81-7.41 c1.76-2.97,2.65-6.57,2.65-10.7c0-3.92-0.79-7.29-2.35-10.01c-1.57-2.75-3.69-5.12-6.29-7.03c-2.65-1.95-5.69-3.67-9.02-5.11 c-3.36-1.45-6.9-2.86-10.51-4.19c-3.66-1.34-7.22-2.74-10.58-4.14c-3.45-1.44-6.58-3.16-9.32-5.13c-2.78-1.99-5.03-4.38-6.7-7.1 c-1.7-2.76-2.56-6.19-2.56-10.19c0-3.67,0.77-7.19,2.29-10.49c1.51-3.29,3.68-6.2,6.45-8.66c2.76-2.45,6.11-4.4,9.96-5.8 c5.77-2.11,12.56-2.64,20.32-1.57c2.62,0.36,5.24,0.83,7.78,1.39c2.57,0.56,4.98,1.21,7.18,1.93s4.06,1.45,5.53,2.18l0.66,0.33 l-2.91,6.39l-0.68-0.29c-3.14-1.31-6.93-2.51-11.28-3.55c-8.25-2-16.73-2.22-23.2-0.02c-3.06,1.03-5.68,2.43-7.79,4.15 c-2.09,1.7-3.72,3.72-4.84,6.01c-1.12,2.27-1.68,4.76-1.68,7.38c0,3.08,0.77,5.71,2.3,7.81c1.56,2.15,3.67,4.04,6.27,5.61 c2.66,1.6,5.7,3.05,9.05,4.3c3.41,1.28,6.93,2.57,10.55,3.89c3.66,1.35,7.24,2.88,10.62,4.55c3.46,1.7,6.6,3.79,9.34,6.23 c2.76,2.45,5.01,5.41,6.68,8.8c1.68,3.41,2.53,7.61,2.53,12.49c0,4.78-0.87,9.15-2.59,13c-1.72,3.86-4.23,7.19-7.47,9.91 c-3.21,2.7-7.11,4.8-11.57,6.26C205.53,194.09,200.51,194.83,195.05,194.83z M163.21,183.37c1.05,0.59,2.39,1.36,4.02,2.32 c1.94,1.15,4.3,2.31,7.02,3.47c2.68,1.15,5.81,2.14,9.28,2.94c3.44,0.8,7.32,1.2,11.52,1.2c5.3,0,10.16-0.7,14.44-2.1 c4.27-1.4,8-3.41,11.06-5.98c3.06-2.57,5.43-5.72,7.06-9.36c1.63-3.65,2.46-7.82,2.46-12.38c0-4.65-0.8-8.62-2.37-11.82 c-1.58-3.21-3.71-6.01-6.32-8.33c-2.64-2.34-5.67-4.36-9-6c-3.34-1.65-6.86-3.15-10.48-4.48s-7.14-2.62-10.55-3.9 c-3.43-1.28-6.56-2.77-9.3-4.42c-2.78-1.67-5.04-3.7-6.72-6.02c-1.72-2.36-2.59-5.29-2.59-8.71c0-2.86,0.62-5.57,1.84-8.06 s2.99-4.69,5.25-6.53c2.25-1.84,5.03-3.32,8.26-4.41c6.75-2.29,15.51-2.09,24.05-0.02c4.11,0.99,7.75,2.12,10.82,3.35l1.68-3.69 c-1.29-0.59-2.85-1.19-4.66-1.78c-2.15-0.7-4.52-1.34-7.04-1.89c-2.51-0.55-5.08-1.01-7.66-1.36c-7.5-1.03-14.05-0.53-19.59,1.49 c-3.67,1.33-6.85,3.19-9.47,5.51c-2.61,2.32-4.66,5.06-6.08,8.16c-1.42,3.09-2.15,6.4-2.15,9.85c0,3.71,0.79,6.87,2.33,9.39 c1.57,2.55,3.68,4.79,6.29,6.66c2.65,1.9,5.68,3.57,9.02,4.96c3.34,1.4,6.88,2.79,10.52,4.12s7.21,2.75,10.59,4.22 c3.44,1.49,6.58,3.27,9.32,5.29c2.77,2.03,5.03,4.56,6.71,7.5c1.69,2.96,2.55,6.58,2.55,10.77c0,4.4-0.96,8.26-2.86,11.47 c-1.88,3.2-4.32,5.85-7.26,7.88c-2.92,2.03-6.19,3.56-9.71,4.55c-6.56,1.83-12.82,1.88-19.02,0.54c-2.88-0.62-5.67-1.42-8.29-2.4 c-2.64-0.99-5.14-2.08-7.42-3.25c-1.99-1.02-3.76-2.03-5.26-3.02L163.21,183.37z"></path> <path class="st0" d="M195.05,199.83c-4.69,0-9.07-0.46-13-1.37c-3.83-0.88-7.33-2-10.38-3.31c-2.94-1.25-5.56-2.54-7.77-3.85 c-1.95-1.14-3.47-2.01-4.51-2.59l-5.02-2.73l8.83-16.36l5.29,3.62c1.43,0.98,3.19,2.01,5.25,3.06c2.08,1.07,4.34,2.06,6.73,2.95 c2.29,0.85,4.77,1.57,7.39,2.14c5.43,1.17,10.63,1.02,15.87-0.46c2.83-0.79,5.44-2.01,7.75-3.61c2.15-1.49,3.95-3.46,5.35-5.84 c1.3-2.2,1.96-4.94,1.96-8.17c0-3.04-0.57-5.57-1.69-7.52c-1.23-2.15-2.88-4-4.91-5.49c-2.34-1.72-5.05-3.25-8.04-4.55 c-3.25-1.4-6.7-2.78-10.25-4.09c-3.58-1.31-7.21-2.73-10.77-4.22c-3.81-1.59-7.28-3.5-10.32-5.69c-3.31-2.37-6.02-5.24-8.04-8.54 c-2.19-3.55-3.3-7.86-3.3-12.81c0-4.39,0.92-8.62,2.75-12.58c1.79-3.91,4.38-7.38,7.67-10.31c3.23-2.87,7.13-5.14,11.57-6.76 c6.53-2.39,14.17-3,22.71-1.82c2.73,0.38,5.48,0.87,8.17,1.46c2.7,0.59,5.28,1.28,7.66,2.06c2.45,0.8,4.53,1.63,6.2,2.45 l4.99,2.49l-6.93,15.22l-5.17-2.21c-2.89-1.21-6.43-2.32-10.48-3.29c-7.75-1.88-15.19-1.93-20.43-0.15 c-2.49,0.84-4.59,1.94-6.24,3.29c-1.53,1.25-2.71,2.7-3.51,4.33c-0.78,1.58-1.17,3.32-1.17,5.18c0,2.01,0.45,3.64,1.34,4.87 c1.17,1.62,2.79,3.05,4.81,4.27c2.41,1.45,5.18,2.76,8.21,3.9c3.4,1.28,6.91,2.56,10.52,3.88c3.87,1.43,7.61,3.03,11.12,4.76 c3.87,1.9,7.39,4.25,10.45,6.98c3.25,2.88,5.88,6.36,7.84,10.32c2.02,4.1,3.04,9.05,3.04,14.7c0,5.49-1.02,10.54-3.02,15.04 c-2.03,4.55-5,8.49-8.82,11.7c-3.68,3.1-8.14,5.52-13.23,7.18C206.54,199.02,201,199.83,195.05,199.83z"></path> </g> </g> <g> <g> <path class="st0" d="M278.95,194.68c-4.37,0-8.53-0.85-12.38-2.51c-3.84-1.66-7.24-3.93-10.1-6.73 c-2.87-2.82-5.14-6.17-6.74-9.96c-1.61-3.79-2.43-7.93-2.43-12.3c0-4.36,0.85-8.53,2.51-12.38c1.66-3.83,3.92-7.23,6.73-10.09 c2.8-2.86,6.15-5.15,9.95-6.82c3.8-1.66,7.94-2.51,12.31-2.51c6.67,0,12.47,1.99,17.23,5.91c4.72,3.89,8.27,8.91,10.55,14.92 l0.27,0.71l-0.71,0.28c-3.66,1.42-7.64,3-11.91,4.73c-4.28,1.74-8.67,3.51-13.15,5.35c-4.49,1.84-8.92,3.65-13.31,5.43 c-4.11,1.68-8,3.23-11.66,4.68c1.88,4.2,4.79,7.68,8.67,10.34c4.08,2.8,8.79,4.22,14.02,4.22c3.36,0,6.56-0.6,9.5-1.78 c2.96-1.19,5.55-2.83,7.71-4.89l0.53-0.5l5.09,4.89l-0.59,0.55c-2.8,2.6-6.15,4.68-9.95,6.19 C287.27,193.91,283.19,194.68,278.95,194.68z M278.8,132.91c-4.15,0-8.09,0.8-11.7,2.38c-3.61,1.58-6.8,3.77-9.47,6.49 c-2.68,2.73-4.84,5.97-6.42,9.63c-1.58,3.66-2.38,7.62-2.38,11.77c0,4.17,0.78,8.1,2.31,11.7c1.53,3.6,3.68,6.79,6.41,9.46 c2.72,2.67,5.96,4.83,9.63,6.42c3.66,1.58,7.62,2.38,11.77,2.38c4.05,0,7.95-0.73,11.57-2.17c3.35-1.33,6.33-3.13,8.87-5.35 l-2.86-2.75c-2.19,1.96-4.76,3.54-7.66,4.71c-3.12,1.25-6.51,1.89-10.07,1.89c-5.54,0-10.54-1.51-14.88-4.49 c-4.34-2.99-7.54-6.93-9.52-11.73l-0.3-0.72l0.72-0.28c3.87-1.53,7.99-3.18,12.38-4.97c4.38-1.78,8.82-3.59,13.3-5.43 c4.48-1.84,8.87-3.62,13.15-5.35c4-1.62,7.75-3.11,11.22-4.46c-2.19-5.45-5.49-10.01-9.82-13.58 C290.58,134.78,285.11,132.91,278.8,132.91z M253.47,170.36l-0.19-0.91c-0.21-1.03-0.39-2.06-0.54-3.1 c-0.16-1.03-0.24-2.15-0.24-3.33c0-3.56,0.69-6.98,2.05-10.16c1.35-3.18,3.24-5.99,5.59-8.34c2.35-2.35,5.15-4.25,8.33-5.66 c3.19-1.41,6.66-2.13,10.32-2.13c4.83,0,9.11,1.28,12.74,3.81c3.61,2.51,6.4,5.91,8.29,10.1l0.32,0.71l-0.72,0.3 c-3.37,1.42-6.96,2.91-10.79,4.44c-3.82,1.53-7.7,3.08-11.62,4.66c-3.93,1.59-7.82,3.16-11.69,4.75 c-3.88,1.58-7.54,3.08-11.01,4.51L253.47,170.36z M278.8,138.26c-3.45,0-6.71,0.67-9.71,2c-3.01,1.33-5.65,3.13-7.87,5.34 c-2.22,2.22-3.99,4.86-5.27,7.86c-1.28,3-1.92,6.21-1.92,9.57c0,1.1,0.07,2.14,0.22,3.1c0.11,0.7,0.22,1.41,0.35,2.11 c3.21-1.32,6.59-2.71,10.15-4.15c3.87-1.59,7.77-3.16,11.7-4.75c3.92-1.58,7.8-3.14,11.62-4.66c3.54-1.42,6.88-2.79,10.03-4.12 c-1.76-3.61-4.26-6.55-7.43-8.76C287.3,139.45,283.31,138.26,278.8,138.26z"></path> <path class="st0" d="M278.95,199.68c-5.04,0-9.87-0.98-14.36-2.92c-4.4-1.9-8.31-4.51-11.62-7.75c-3.35-3.3-5.99-7.19-7.85-11.59 c-1.87-4.41-2.82-9.2-2.82-14.25c0-5.04,0.98-9.87,2.92-14.36c1.92-4.42,4.52-8.33,7.75-11.61c3.23-3.3,7.11-5.96,11.51-7.89 c4.46-1.95,9.27-2.93,14.32-2.93c7.86,0,14.73,2.37,20.41,7.05c5.4,4.45,9.45,10.17,12.05,17.01l2.02,5.32l-5.3,2.09 c-3.67,1.43-7.66,3.01-11.87,4.71l-3.95,1.6c-3.01,1.22-6.07,2.46-9.17,3.74c-4.5,1.84-8.93,3.66-13.33,5.44 c-2.14,0.88-4.24,1.72-6.19,2.5c1.18,1.42,2.56,2.68,4.14,3.76c3.23,2.22,7,3.34,11.19,3.34c2.72,0,5.29-0.48,7.64-1.42 c2.37-0.95,4.43-2.25,6.12-3.87l4.01-3.79l12.33,11.85l-4.46,4.15c-3.25,3.02-7.13,5.44-11.51,7.18 C288.5,198.8,283.8,199.68,278.95,199.68z M278.8,143.26c-2.75,0-5.33,0.53-7.68,1.57c-2.43,1.07-4.57,2.52-6.37,4.31 c-1.76,1.76-3.17,3.87-4.2,6.28c-0.75,1.75-1.22,3.61-1.42,5.55c1.22-0.5,2.47-1.01,3.74-1.52c3.13-1.29,6.3-2.57,9.49-3.86 l2.21-0.89c3.93-1.59,7.82-3.15,11.65-4.67c1.5-0.6,2.95-1.19,4.33-1.75c-0.83-0.89-1.74-1.68-2.74-2.38 C285.3,144.15,282.27,143.26,278.8,143.26z"></path> </g> </g> <g> <g> <path class="st0" d="M330.8,193.61h-6.88V76.18h6.88V193.61z M325.45,192.08h3.82V77.71h-3.82V192.08z"></path> <rect x="318.92" y="71.18" class="st0" width="16.88" height="127.43"></rect> </g> </g> <g> <g> <path class="st0" d="M358.78,193.61h-6.88V76.18h6.88V193.61z M353.43,192.08h3.82V77.71h-3.82V192.08z"></path> <rect x="346.9" y="71.18" class="st0" width="16.88" height="127.43"></rect> </g> </g> <g> <path class="st1" d="M410.27,194.83c-4.33,0-8.32-0.42-11.86-1.24c-3.57-0.82-6.77-1.84-9.54-3.03c-2.76-1.17-5.18-2.37-7.19-3.56 c-1.98-1.16-3.53-2.05-4.64-2.66l-0.67-0.37l3.82-7.08l0.7,0.48c1.59,1.1,3.54,2.24,5.8,3.39c2.24,1.15,4.68,2.22,7.26,3.18 c2.56,0.95,5.28,1.74,8.07,2.34c5.96,1.28,11.96,1.25,18.29-0.53c3.36-0.94,6.48-2.4,9.25-4.32c2.74-1.91,5.04-4.4,6.81-7.41 c1.75-2.97,2.64-6.56,2.64-10.7c0-3.92-0.79-7.29-2.35-10.01c-1.57-2.75-3.69-5.12-6.29-7.03c-2.65-1.95-5.68-3.67-9.02-5.11 c-3.36-1.46-6.9-2.87-10.51-4.19c-3.69-1.35-7.25-2.75-10.58-4.14c-3.45-1.44-6.58-3.16-9.32-5.13c-2.78-1.99-5.03-4.38-6.7-7.1 c-1.7-2.76-2.56-6.19-2.56-10.19c0-3.67,0.77-7.2,2.29-10.49c1.51-3.28,3.68-6.2,6.46-8.66c2.76-2.45,6.11-4.4,9.95-5.8 c5.78-2.11,12.58-2.64,20.32-1.57c2.62,0.36,5.24,0.83,7.78,1.39c2.56,0.56,4.98,1.21,7.18,1.93c2.2,0.72,4.06,1.46,5.52,2.18 l0.66,0.33l-2.91,6.39l-0.68-0.29c-3.13-1.31-6.92-2.5-11.27-3.55c-8.27-2-16.75-2.22-23.19-0.02c-3.06,1.03-5.68,2.43-7.79,4.15 c-2.09,1.7-3.72,3.72-4.84,6.01c-1.12,2.27-1.68,4.75-1.68,7.38c0,3.08,0.77,5.7,2.3,7.81c1.56,2.15,3.67,4.04,6.27,5.61 c2.66,1.6,5.7,3.05,9.05,4.3c3.41,1.28,6.93,2.57,10.54,3.89c3.66,1.35,7.24,2.88,10.63,4.55c3.45,1.7,6.6,3.79,9.34,6.23 c2.77,2.46,5.01,5.42,6.68,8.8c1.68,3.4,2.52,7.61,2.52,12.49c0,4.8-0.87,9.17-2.59,13.01c-1.73,3.86-4.24,7.19-7.47,9.91 c-3.21,2.69-7.1,4.8-11.56,6.26C420.75,194.09,415.73,194.83,410.27,194.83z M378.43,183.37c1.05,0.59,2.39,1.36,4.02,2.32 c1.96,1.16,4.32,2.32,7.02,3.47c2.68,1.15,5.8,2.14,9.28,2.94c3.43,0.8,7.31,1.2,11.52,1.2c5.3,0,10.16-0.7,14.45-2.1 c4.28-1.4,8-3.41,11.05-5.98c3.05-2.56,5.43-5.71,7.06-9.36c1.63-3.63,2.45-7.8,2.45-12.38c0-4.65-0.8-8.62-2.37-11.82 s-3.7-6.01-6.32-8.33c-2.65-2.34-5.67-4.36-9-6c-3.34-1.65-6.87-3.15-10.48-4.48c-3.62-1.33-7.13-2.62-10.55-3.9 c-3.43-1.28-6.56-2.77-9.3-4.42c-2.78-1.68-5.04-3.7-6.72-6.02c-1.72-2.37-2.6-5.3-2.6-8.71c0-2.87,0.62-5.58,1.84-8.06 c1.22-2.49,2.99-4.69,5.25-6.53c2.25-1.83,5.03-3.32,8.26-4.41c6.73-2.29,15.5-2.09,24.05-0.02c4.12,0.99,7.76,2.12,10.82,3.35 l1.68-3.69c-1.28-0.59-2.84-1.19-4.65-1.78c-2.16-0.7-4.52-1.34-7.04-1.89c-2.51-0.55-5.08-1.01-7.66-1.36 c-7.49-1.03-14.05-0.54-19.58,1.49c-3.66,1.33-6.85,3.19-9.46,5.51c-2.62,2.32-4.67,5.06-6.09,8.16c-1.43,3.09-2.15,6.4-2.15,9.85 c0,3.71,0.79,6.87,2.33,9.39c1.56,2.55,3.68,4.79,6.29,6.66c2.65,1.9,5.68,3.57,9.02,4.96c3.31,1.39,6.85,2.78,10.52,4.12 c3.64,1.33,7.2,2.75,10.59,4.22c3.45,1.49,6.58,3.27,9.32,5.29c2.77,2.04,5.03,4.56,6.71,7.5c1.69,2.96,2.55,6.58,2.55,10.77 c0,4.41-0.96,8.27-2.86,11.47c-1.89,3.2-4.33,5.85-7.26,7.88c-2.91,2.03-6.18,3.55-9.71,4.55c-6.55,1.83-12.81,1.88-19.02,0.54 c-2.87-0.62-5.66-1.42-8.29-2.4s-5.12-2.08-7.42-3.25c-1.99-1.02-3.77-2.03-5.27-3.02L378.43,183.37z"></path> </g> <g> <path class="st1" d="M541.02,163.18c0-4.28,0.79-8.31,2.37-12.08s3.75-7.06,6.5-9.86s5.98-4.99,9.71-6.57 c3.72-1.58,7.72-2.37,12.01-2.37c3.26,0,6.29,0.46,9.1,1.38c2.8,0.92,5.33,2.14,7.57,3.67s4.18,3.29,5.81,5.28 c1.63,1.98,2.85,4.05,3.67,6.19c0-2.55,0.08-5.1,0.23-7.64c0.15-2.55,0.28-5.05,0.38-7.49h4.74v59.17c0,3.88-0.56,7.52-1.68,10.94 c-1.12,3.41-2.91,6.42-5.35,9.02c-2.45,2.6-5.63,4.66-9.56,6.19s-8.74,2.29-14.45,2.29c-4.69,0-9.15-0.87-13.38-2.6 c-4.24-1.74-8.79-4.94-13.69-9.63l3.37-3.67c2.24,2.24,4.41,4.05,6.5,5.42c2.09,1.38,4.1,2.45,6.04,3.21 c1.94,0.76,3.79,1.3,5.58,1.61c1.79,0.31,3.6,0.46,5.43,0.46c4.79,0,8.82-0.59,12.08-1.76s5.89-2.83,7.88-4.97 c1.98-2.14,3.44-4.66,4.35-7.57c0.92-2.91,1.43-6.14,1.53-9.71v-6.57c0-0.2,0.02-0.71,0.07-1.53c0.06-0.82,0.08-1.68,0.08-2.6 c0-0.91,0.02-1.78,0.08-2.6c0.05-0.81,0.08-1.32,0.08-1.53c-2.04,4.69-5.35,8.64-9.94,11.85s-10.09,4.82-16.51,4.82 c-4.28,0-8.28-0.79-12.01-2.37c-3.72-1.58-6.96-3.77-9.71-6.57s-4.92-6.06-6.5-9.79C541.81,171.46,541.02,167.46,541.02,163.18 M546.37,163.18c0,3.57,0.66,6.9,1.99,10.01c1.32,3.11,3.13,5.81,5.42,8.1c2.29,2.29,5.02,4.11,8.18,5.42 c3.16,1.33,6.52,1.99,10.09,1.99s6.93-0.66,10.09-1.99c3.16-1.32,5.89-3.13,8.18-5.42s4.1-4.99,5.43-8.1 c1.32-3.11,1.98-6.45,1.98-10.01c0-3.57-0.67-6.93-1.98-10.09c-1.33-3.16-3.13-5.88-5.43-8.18c-2.29-2.29-5.02-4.1-8.18-5.43 c-3.16-1.32-6.52-1.99-10.09-1.99s-6.94,0.66-10.09,1.99c-3.16,1.33-5.89,3.14-8.18,5.43c-2.29,2.29-4.1,5.02-5.42,8.18 C547.03,156.25,546.37,159.62,546.37,163.18"></path> </g> <g> <path class="st1" d="M493.01,194.68c-4.47,0-8.67-0.85-12.46-2.51c-3.79-1.65-7.13-3.92-9.94-6.73c-2.82-2.81-5.06-6.16-6.66-9.95 c-1.61-3.79-2.43-7.88-2.43-12.15c0-4.36,0.85-8.53,2.51-12.38c1.66-3.84,3.93-7.24,6.73-10.09c2.8-2.85,6.14-5.15,9.94-6.81 c3.8-1.67,7.95-2.51,12.31-2.51c3.12,0,6.12,0.45,8.94,1.34s5.4,2.13,7.69,3.69c2.28,1.55,4.31,3.37,6.04,5.41 c0.98,1.16,1.85,2.37,2.58,3.63c0.02-1.51,0.07-3,0.12-4.46c0.1-2.5,0.26-5.03,0.46-7.52l0.06-0.7h6.06v60.7h-6.73v-12.53 c-1.9,3.32-4.68,6.24-8.28,8.73C505.26,193.04,499.56,194.68,493.01,194.68z M493.01,133.06c-4.15,0-8.09,0.8-11.7,2.38 c-3.62,1.59-6.81,3.77-9.47,6.48c-2.67,2.72-4.83,5.96-6.42,9.63c-1.58,3.66-2.39,7.63-2.39,11.77c0,4.06,0.78,7.95,2.31,11.55 c1.53,3.61,3.66,6.8,6.33,9.47c2.68,2.68,5.87,4.83,9.48,6.41c3.6,1.58,7.59,2.38,11.85,2.38c6.24,0,11.64-1.55,16.08-4.6 c4.43-3.05,7.52-6.79,9.2-11.11l1.48-3.81v18.46h3.67v-57.64h-3.12c-0.18,2.24-0.31,4.51-0.4,6.76c-0.1,2.48-0.15,5.04-0.15,7.62 v3.89l-1.47-3.6c-0.88-2.16-2.16-4.23-3.77-6.14c-1.64-1.93-3.57-3.66-5.74-5.13c-2.17-1.48-4.62-2.65-7.29-3.5 C498.83,133.48,495.97,133.06,493.01,133.06z M493.16,189.47c-3.66,0-7.15-0.69-10.38-2.05c-3.23-1.34-6.06-3.23-8.43-5.59 c-2.35-2.35-4.23-5.15-5.59-8.34s-2.04-6.66-2.04-10.32c0-3.66,0.69-7.16,2.04-10.39s3.23-6.06,5.59-8.42 c2.35-2.35,5.19-4.24,8.43-5.6c6.49-2.72,14.3-2.72,20.78,0c3.24,1.36,6.09,3.24,8.49,5.59c2.4,2.34,4.31,5.18,5.68,8.43 c1.36,3.25,2.05,6.74,2.05,10.39c0,3.66-0.69,7.13-2.05,10.31c-1.37,3.2-3.28,6.01-5.68,8.35c-2.39,2.35-5.25,4.23-8.49,5.58 C500.31,188.79,496.81,189.47,493.16,189.47z M493.16,138.26c-3.45,0-6.74,0.65-9.79,1.93s-5.72,3.05-7.94,5.27 s-3.99,4.89-5.26,7.93c-1.28,3.05-1.92,6.34-1.92,9.8c0,3.45,0.65,6.72,1.92,9.72c1.28,3,3.05,5.65,5.26,7.86 c2.22,2.22,4.89,3.99,7.93,5.26c6.09,2.55,13.49,2.56,19.6,0c3.06-1.28,5.76-3.05,8.01-5.27c2.26-2.2,4.06-4.84,5.34-7.85 c1.28-3,1.92-6.27,1.92-9.71s-0.65-6.74-1.93-9.8c-1.29-3.06-3.08-5.72-5.34-7.93c-2.26-2.21-4.96-3.99-8.01-5.27 C499.91,138.9,496.61,138.26,493.16,138.26z"></path> </g> <g> <path class="st1" d="M650.65,194.68c-4.37,0-8.53-0.85-12.39-2.51c-3.85-1.67-7.24-3.93-10.09-6.73 c-2.86-2.81-5.13-6.16-6.75-9.96c-1.61-3.79-2.42-7.93-2.42-12.3s0.84-8.54,2.51-12.38c1.66-3.84,3.92-7.23,6.73-10.09 c2.82-2.87,6.16-5.16,9.95-6.82c3.8-1.66,7.94-2.51,12.31-2.51c6.68,0,12.47,1.99,17.23,5.91c4.72,3.89,8.27,8.91,10.55,14.92 l0.27,0.71l-0.7,0.27c-3.66,1.42-7.64,3-11.91,4.73c-4.28,1.74-8.66,3.51-13.15,5.35c-4.49,1.84-8.92,3.65-13.31,5.43 c-4.11,1.68-7.99,3.23-11.66,4.68c1.88,4.2,4.79,7.67,8.67,10.34c4.07,2.8,8.79,4.22,14.02,4.22c3.37,0,6.56-0.6,9.51-1.78 s5.54-2.83,7.7-4.89l0.53-0.5l5.08,4.89l-0.59,0.55c-2.8,2.6-6.14,4.68-9.94,6.19C658.97,193.91,654.89,194.68,650.65,194.68z M650.49,132.91c-4.15,0-8.09,0.8-11.69,2.38c-3.61,1.58-6.8,3.76-9.48,6.49c-2.67,2.72-4.83,5.97-6.42,9.63 c-1.58,3.65-2.38,7.62-2.38,11.77c0,4.17,0.77,8.1,2.3,11.7c1.53,3.61,3.69,6.79,6.41,9.46c2.72,2.67,5.95,4.83,9.63,6.42 c7.22,3.13,16,3.13,23.35,0.22c3.35-1.33,6.33-3.13,8.87-5.35l-2.86-2.75c-2.19,1.96-4.76,3.54-7.65,4.71 c-3.12,1.25-6.51,1.89-10.07,1.89c-5.54,0-10.55-1.51-14.88-4.49c-4.34-2.99-7.54-6.94-9.52-11.73l-0.3-0.72l0.72-0.28 c3.88-1.53,8-3.18,12.38-4.97c4.38-1.78,8.82-3.59,13.3-5.43c4.49-1.84,8.87-3.62,13.15-5.35c4-1.62,7.75-3.11,11.22-4.47 c-2.19-5.44-5.49-10.01-9.82-13.58C662.27,134.78,656.81,132.91,650.49,132.91z M625.16,170.36l-0.19-0.91 c-0.21-1.03-0.39-2.06-0.54-3.1c-0.16-1.05-0.24-2.17-0.24-3.33c0-3.55,0.69-6.97,2.05-10.16c1.35-3.17,3.23-5.98,5.59-8.34 c2.35-2.35,5.15-4.25,8.33-5.66c3.2-1.41,6.67-2.13,10.33-2.13c4.83,0,9.11,1.28,12.75,3.81c3.61,2.51,6.4,5.91,8.29,10.1 l0.32,0.71l-0.72,0.3c-3.37,1.42-6.96,2.91-10.79,4.44c-3.82,1.53-7.7,3.08-11.61,4.66c-3.93,1.59-7.82,3.16-11.7,4.75 c-3.88,1.58-7.54,3.08-11,4.51L625.16,170.36z M650.49,138.26c-3.44,0-6.71,0.67-9.71,2s-5.65,3.13-7.86,5.34 c-2.22,2.22-4,4.87-5.26,7.86c-1.28,3-1.93,6.22-1.93,9.57c0,1.09,0.07,2.13,0.22,3.1c0.11,0.7,0.22,1.41,0.36,2.11 c3.21-1.32,6.59-2.71,10.14-4.15c3.88-1.59,7.77-3.16,11.7-4.75c3.92-1.58,7.8-3.14,11.62-4.66c3.54-1.42,6.88-2.79,10.03-4.12 c-1.76-3.61-4.26-6.55-7.43-8.76C658.99,139.45,655,138.26,650.49,138.26z"></path> </g> <g> <g> <path class="st2" d="M84.86,96.55c3.25,6,6,7.9,9.61,7.17c-4.17,5.48-6.62,9.55-9.86,18.3c-2.94-8.66-5.82-12.51-9.86-18.3 C78.08,104.19,81.51,102.02,84.86,96.55"></path> </g> <g> <path class="st2" d="M116.59,44.64c-29.05,7.56-28.66,17.9-31.98,27.29c-2.89-9.13-5.62-22.34-32.37-27.19 C83.08,32.44,116.59,44.64,116.59,44.64z"></path> </g> <g> <path class="st2" d="M47.14,110.24c1.34-0.11,14.58,2.49,23.68-1.35c10.15,15,32.06,60.32,35.68,91.38c-21.23,0-25.82,0-46.8,0 c0,0-0.72-1.23-1.92-3.42c-0.59-1.1-1.35-2.43-2.1-4.01c-0.75-1.58-1.58-3.38-2.45-5.36c-0.88-1.98-1.69-4.19-2.57-6.52 c-0.87-2.33-1.63-4.86-2.43-7.47c-0.37-1.31-0.7-2.66-1.06-4.03c-0.36-1.36-0.73-2.74-0.98-4.16c-0.28-1.42-0.56-2.85-0.84-4.27 c-0.26-1.44-0.46-2.89-0.69-4.34c-0.21-1.46-0.4-2.91-0.51-4.37c-0.12-1.46-0.3-2.9-0.4-4.35c-0.19-2.89-0.26-5.73-0.26-8.48 c-0.06-2.75,0.15-5.41,0.28-7.92c0.17-2.51,0.4-4.87,0.7-7.04c0.23-2.17,0.61-4.14,0.88-5.9c0.3-1.75,0.62-3.26,0.87-4.5 C46.79,111.65,47.14,110.24,47.14,110.24"></path> </g> <g> <path class="st2" d="M42.62,108.63c-7.31,29.11-4.54,49.97,2.56,70.36c0,0-0.27-0.2-0.77-0.59c-0.51-0.4-1.24-0.99-2.09-1.85 c-0.85-0.85-1.88-1.9-2.91-3.21c-1.07-1.29-2.22-2.81-3.33-4.53c-2.3-3.42-4.6-7.65-6.7-12.36c-1.03-2.35-2.01-4.83-2.87-7.4 c-0.86-2.57-1.65-5.21-2.29-7.9c-0.64-2.69-1.15-5.42-1.48-8.15c-0.32-2.72-0.49-5.45-0.39-8.11c0.12-2.67,0.41-5.26,1.14-7.71 c0.7-2.42,1.7-4.72,3.27-6.46c1.51-1.75,3.35-3,5.13-3.45c0.85-0.34,1.7-0.4,2.46-0.48c0.75-0.13,1.46-0.02,2.08,0.02 c1.26,0.01,2.11,0.36,2.75,0.48c0.63,0.14,0.95,0.22,0.95,0.22"></path> </g> <g> <g> <path class="st2" d="M75.05,73.75"></path> </g> <g> <path class="st2" d="M81.02,73.75"></path> </g> </g> <g> <g> <path class="st2" d="M94.37,73.75"></path> </g> <g> <path class="st2" d="M88.4,73.75"></path> </g> </g> <g> <path class="st2" d="M118.51,110.24c-1.26-0.11-11.04,2.03-20.37-1.35c-8.94,14.1-32.05,60.32-35.45,91.38 c9.37-21.92,39.56-19.75,44.02,0c0,0,0.68-1.23,1.81-3.42c0.55-1.1,1.27-2.43,1.98-4.01c0.7-1.58,1.49-3.38,2.3-5.36 c0.83-1.98,1.59-4.19,2.41-6.52c0.82-2.33,1.53-4.86,2.29-7.47c0.34-1.31,0.66-2.66,1-4.03c0.34-1.36,0.69-2.74,0.92-4.16 c0.26-1.42,0.52-2.85,0.79-4.27c0.25-1.44,0.43-2.89,0.65-4.34c0.2-1.46,0.37-2.91,0.48-4.37c0.12-1.46,0.28-2.9,0.37-4.35 c0.18-2.89,0.25-5.73,0.24-8.48c0.06-2.75-0.14-5.41-0.26-7.92c-0.16-2.51-0.38-4.87-0.66-7.04c-0.22-2.17-0.57-4.14-0.83-5.9 c-0.28-1.75-0.59-3.26-0.82-4.5C118.84,111.65,118.51,110.24,118.51,110.24"></path> </g> <g> <path class="st3" d="M40.22,57.88c11.79,0.98,30.93,10.1,38.94,32.31c2.95,8.19-13.16,13.62-19.66,14.63 c-5.69,0.88-11.58-0.07-16.35-2.3c-4.96-2.23-8.68-5.94-11.12-10.03c-2.42-4.1-3.55-8.51-3.53-12.43 c-0.01-3.94,0.84-8.36,1.89-11.63C31.44,65.69,33.46,57.31,40.22,57.88z M43.52,66.46c8.39,0.7,22.01,7.18,27.71,22.99 c2.1,5.83-9.37,9.69-13.99,10.41c-4.05,0.63-8.24-0.05-11.64-1.64c-3.53-1.59-6.18-4.23-7.91-7.14 c-1.72-2.92-2.53-6.05-2.51-8.85c-0.01-2.8,0.6-5.95,1.34-8.27C37.28,72.02,38.71,66.06,43.52,66.46z"></path> </g> <g> <circle class="st2" cx="55.61" cy="82.6" r="12.31"></circle> </g> <g> <path class="st3" d="M138.59,68.42c1.05,3.26,1.9,7.69,1.89,11.63c0.02,3.93-1.11,8.33-3.53,12.43 c-2.43,4.09-6.16,7.8-11.12,10.03c-4.77,2.23-10.66,3.19-16.35,2.3c-6.5-1.01-22.61-6.44-19.66-14.63 c8.01-22.21,27.14-31.32,38.94-32.31C135.52,57.31,137.53,65.69,138.59,68.42z M132.45,73.96c0.74,2.32,1.35,5.47,1.34,8.27 c0.02,2.79-0.79,5.93-2.51,8.85c-1.73,2.91-4.38,5.55-7.91,7.14c-3.39,1.59-7.59,2.27-11.64,1.64 c-4.62-0.72-16.09-4.58-13.99-10.41c5.7-15.81,19.32-22.29,27.71-22.99C130.26,66.06,131.69,72.02,132.45,73.96z"></path> </g> <g> <circle class="st2" cx="113.37" cy="82.6" r="12.31"></circle> </g> <g> <path class="st2" d="M81.14,80.16c-6.32-9.94-10.81-18.56-25.58-23.49c-12.26-4.08-31.46-7.23-33.08-26.47 C35.19,61.1,76.92,38.57,81.14,80.16"></path> <path class="st2" d="M81.14,80.16c-1.9-2.81-3.73-5.66-5.73-8.39c-1.99-2.73-4.24-5.26-6.8-7.41c-2.56-2.15-5.43-3.91-8.49-5.26 c-3.04-1.38-6.28-2.29-9.54-3.23c-6.49-1.85-13.19-3.82-18.95-7.85c-2.85-2-5.4-4.58-7.13-7.68c-0.88-1.54-1.56-3.18-2.07-4.88 c-0.48-1.7-0.78-3.44-0.96-5.18l-0.69-6.81l2.61,6.34c1.28,3.1,2.99,6.02,5.25,8.47c2.24,2.47,4.99,4.45,7.98,5.98 c6.02,3.1,12.85,4.41,19.49,6.4c3.33,0.98,6.66,2.1,9.8,3.7c3.13,1.58,6.06,3.69,8.35,6.39c2.29,2.69,3.91,5.87,4.99,9.18 c0.53,1.66,0.94,3.35,1.25,5.06C80.82,76.72,81,78.44,81.14,80.16c-0.47-3.42-1.2-6.81-2.38-10.03c-1.2-3.21-2.92-6.22-5.23-8.7 c-2.27-2.52-5.11-4.46-8.17-5.9c-3.07-1.46-6.34-2.47-9.66-3.35c-3.32-0.88-6.69-1.64-10.04-2.6c-3.35-0.95-6.69-2.06-9.86-3.66 c-3.16-1.58-6.13-3.68-8.56-6.31c-2.44-2.62-4.32-5.73-5.69-9.01l1.92-0.46c0.15,1.63,0.41,3.24,0.84,4.81 c0.45,1.56,1.06,3.07,1.85,4.48c1.56,2.84,3.86,5.24,6.53,7.15c2.67,1.92,5.67,3.4,8.78,4.63c3.11,1.23,6.31,2.29,9.54,3.3 c3.22,1.03,6.51,2.05,9.61,3.54c3.1,1.47,6.05,3.32,8.58,5.66C74.35,68.32,77.7,74.36,81.14,80.16z"></path> </g> <g> <path class="st2" d="M87.86,80.16c6.32-9.94,10.81-18.56,25.58-23.49c12.26-4.08,31.46-7.23,33.08-26.47 C133.81,61.1,92.08,38.57,87.86,80.16"></path> <path class="st2" d="M87.86,80.16c3.45-5.8,6.79-11.84,11.94-16.47c2.53-2.33,5.48-4.18,8.58-5.66c3.1-1.5,6.39-2.52,9.61-3.54 c3.23-1.02,6.43-2.08,9.54-3.3c3.11-1.23,6.11-2.71,8.78-4.63c2.67-1.91,4.97-4.3,6.53-7.15c0.79-1.41,1.4-2.92,1.85-4.48 c0.43-1.57,0.69-3.18,0.84-4.81l1.92,0.46c-1.37,3.27-3.24,6.38-5.69,9.01c-2.43,2.63-5.4,4.73-8.56,6.31 c-3.17,1.59-6.51,2.71-9.86,3.66c-3.35,0.96-6.72,1.73-10.04,2.6c-3.32,0.88-6.59,1.89-9.66,3.35c-3.06,1.45-5.9,3.39-8.17,5.9 c-2.3,2.48-4.02,5.5-5.23,8.7C89.05,73.35,88.33,76.74,87.86,80.16c0.14-1.72,0.32-3.45,0.63-5.15c0.31-1.7,0.72-3.4,1.25-5.06 c1.08-3.31,2.7-6.49,4.99-9.18c2.29-2.7,5.22-4.8,8.35-6.39c3.14-1.6,6.47-2.72,9.8-3.7c6.64-1.99,13.47-3.3,19.49-6.4 c3-1.53,5.74-3.52,7.98-5.98c2.25-2.46,3.97-5.37,5.25-8.47l2.61-6.34l-0.69,6.81c-0.18,1.74-0.47,3.48-0.96,5.18 c-0.51,1.69-1.19,3.34-2.07,4.88c-1.74,3.1-4.28,5.68-7.13,7.68c-5.75,4.04-12.46,6.01-18.95,7.85 c-3.26,0.93-6.49,1.84-9.54,3.23c-3.06,1.35-5.93,3.11-8.49,5.26c-2.56,2.15-4.81,4.68-6.8,7.41 C91.59,74.5,89.75,77.35,87.86,80.16z"></path> </g> <g> <path class="st2" d="M123.06,108.63c7.31,29.11,4.54,49.97-2.56,70.36c0,0,0.27-0.2,0.77-0.59c0.51-0.4,1.24-0.99,2.09-1.85 c0.85-0.85,1.88-1.9,2.91-3.21c1.07-1.29,2.22-2.81,3.33-4.53c2.3-3.42,4.6-7.65,6.7-12.36c1.03-2.35,2.01-4.83,2.87-7.4 c0.86-2.57,1.65-5.21,2.29-7.9c0.64-2.69,1.15-5.42,1.48-8.15c0.32-2.72,0.49-5.45,0.39-8.11c-0.12-2.67-0.41-5.26-1.14-7.71 c-0.7-2.42-1.7-4.72-3.27-6.46c-1.51-1.75-3.35-3-5.13-3.45c-0.85-0.34-1.7-0.4-2.46-0.48c-0.75-0.13-1.46-0.02-2.08,0.02 c-1.26,0.01-2.11,0.36-2.75,0.48c-0.63,0.14-0.95,0.22-0.95,0.22"></path> </g> </g> </g> </svg> 