<?xml version="1.0" standalone="no"?>
<!DOCTYPE svg PUBLIC "-//W3C//DTD SVG 20010904//EN"
 "http://www.w3.org/TR/2001/REC-SVG-20010904/DTD/svg10.dtd">
<svg version="1.0" xmlns="http://www.w3.org/2000/svg"
 width="712.000000pt" height="712.000000pt" viewBox="0 0 712.000000 712.000000"
 preserveAspectRatio="xMidYMid meet">
<metadata>
Created by potrace 1.14, written by Peter Selinger 2001-2017
</metadata>
<g transform="translate(0.000000,712.000000) scale(0.100000,-0.100000)"
fill="#000000" stroke="none">
<path d="M6082 7037 c-12 -29 -22 -58 -22 -65 0 -6 -4 -12 -8 -12 -5 0 -9 -6
-9 -13 0 -8 -9 -34 -20 -58 -12 -24 -35 -75 -52 -112 -70 -153 -218 -330 -356
-424 -77 -52 -193 -113 -270 -142 -33 -13 -69 -27 -80 -32 -32 -14 -202 -66
-305 -93 -52 -14 -135 -37 -185 -51 -49 -14 -101 -28 -114 -31 -14 -3 -29 -8
-35 -12 -6 -3 -17 -7 -24 -8 -8 -2 -21 -6 -30 -10 -9 -4 -25 -9 -35 -11 -10
-1 -31 -10 -47 -18 -16 -8 -34 -15 -39 -15 -13 0 -204 -91 -211 -100 -3 -3
-12 -9 -20 -12 -26 -9 -172 -124 -212 -165 -57 -60 -145 -189 -179 -262 -29
-63 -76 -193 -84 -236 -3 -11 -9 -40 -15 -65 -16 -71 -38 -240 -30 -240 6 0
49 61 105 149 85 132 206 283 303 378 132 129 126 124 218 184 103 68 320 168
424 195 183 47 583 176 608 196 6 6 12 7 12 4 0 -10 217 102 269 139 23 16 50
35 59 40 9 6 26 19 37 30 12 11 39 36 61 55 63 56 123 135 175 227 24 43 76
181 84 221 3 15 7 38 10 52 7 34 15 95 21 155 5 64 13 141 19 183 2 17 3 32 1
32 -1 0 -12 -24 -24 -53z"/>
<path d="M1015 7049 c3 -19 8 -60 10 -92 3 -31 7 -74 10 -95 2 -20 7 -62 11
-92 9 -75 49 -212 85 -286 114 -239 317 -407 660 -544 90 -37 377 -130 409
-134 45 -6 328 -104 410 -143 95 -44 192 -101 198 -115 2 -5 8 -8 14 -8 10 0
29 -14 121 -90 20 -16 98 -95 148 -150 18 -19 57 -69 88 -110 31 -41 58 -77
61 -80 3 -3 10 -13 15 -22 33 -56 161 -238 168 -238 5 0 6 3 4 8 -3 4 -8 36
-11 72 -8 89 -32 197 -68 310 -94 300 -273 501 -575 646 -75 36 -323 126 -383
139 -8 2 -91 24 -185 50 -93 26 -177 49 -185 50 -22 5 -210 71 -245 86 -16 7
-32 13 -35 14 -69 24 -211 107 -290 170 -131 105 -222 220 -298 376 -46 95
-122 275 -122 289 0 5 -5 12 -11 15 -7 5 -9 -4 -4 -26z"/>
<path d="M3249 6465 c-2 -2 -38 -6 -79 -9 -134 -11 -262 -29 -370 -51 -14 -3
-38 -8 -55 -11 -16 -3 -55 -12 -85 -20 -30 -8 -64 -17 -75 -19 -74 -17 -321
-102 -305 -105 3 -1 12 -3 20 -5 8 -2 26 -5 40 -8 254 -49 532 -154 694 -261
38 -25 71 -46 72 -46 2 0 12 -8 22 -17 10 -10 43 -41 73 -69 99 -93 170 -189
231 -316 31 -63 93 -224 102 -263 2 -5 9 -30 16 -55 l13 -45 13 32 c7 17 15
42 18 55 22 108 110 321 172 414 76 115 278 286 392 333 17 7 32 17 32 22 0 5
6 9 13 9 7 0 37 11 66 25 126 61 397 156 546 191 29 7 28 8 -25 26 -55 19
-288 81 -345 93 -59 12 -191 36 -220 41 -16 3 -41 7 -54 9 -13 2 -45 7 -70 11
-25 3 -57 8 -71 10 -14 2 -52 6 -85 9 -33 4 -78 9 -100 12 -47 6 -591 14 -596
8z"/>
<path d="M1710 5720 c-19 -4 -49 -14 -66 -23 -35 -18 -124 -98 -124 -111 0 -4
-8 -20 -19 -34 -10 -15 -31 -56 -45 -92 -15 -36 -31 -74 -36 -85 -24 -52 -72
-244 -86 -340 -2 -16 -6 -66 -9 -110 -2 -44 -5 -82 -6 -85 -2 -6 -2 0 6 -85
14 -163 70 -313 173 -470 52 -78 174 -204 242 -250 25 -16 47 -32 50 -35 26
-26 262 -123 325 -134 17 -2 55 -9 85 -14 66 -12 69 -13 190 -14 117 -1 177 6
303 38 12 3 29 7 37 9 8 2 15 4 15 5 0 1 7 3 15 5 19 4 106 34 140 48 14 5 30
11 35 12 25 6 208 101 231 120 7 6 32 26 56 45 54 42 108 110 126 159 25 70
-7 206 -80 339 -10 18 -18 36 -18 41 0 12 -83 155 -92 159 -5 2 -8 9 -8 15 0
16 -113 171 -180 249 -63 72 -157 165 -213 212 -22 17 -49 39 -60 50 -39 33
-241 163 -302 194 -249 127 -549 207 -685 182z m315 -354 c17 -3 45 -10 63
-15 18 -5 33 -10 35 -10 13 0 149 -53 199 -77 61 -31 65 -39 19 -41 -121 -5
-271 -101 -352 -225 -96 -148 -99 -363 -7 -513 31 -50 126 -154 141 -155 5 0
21 -8 35 -19 96 -67 276 -85 402 -41 174 61 301 211 329 389 6 35 12 65 14 67
3 4 108 -202 111 -220 2 -6 8 -29 14 -51 16 -55 7 -103 -26 -150 -79 -112
-320 -227 -552 -262 -44 -6 -207 -6 -218 0 -4 3 -27 8 -51 12 -24 3 -75 18
-114 32 -251 90 -432 310 -473 573 -5 31 -5 165 0 205 10 80 42 215 61 260 58
132 69 155 76 155 4 0 10 8 14 19 8 25 76 69 123 79 33 7 68 5 157 -12z"/>
<path d="M5193 5704 c-189 -38 -372 -108 -543 -208 -85 -50 -181 -112 -190
-124 -3 -4 -23 -20 -45 -37 -73 -53 -226 -201 -280 -270 -17 -21 -35 -43 -42
-50 -7 -7 -45 -62 -85 -121 -76 -114 -149 -247 -191 -349 -13 -33 -28 -69 -32
-80 -5 -11 -14 -43 -20 -72 -14 -63 5 -130 55 -195 36 -47 130 -128 149 -128
6 0 11 -4 11 -8 0 -10 127 -73 245 -122 74 -31 268 -84 345 -95 64 -8 212 -10
295 -2 186 17 396 100 548 217 76 58 246 256 247 288 0 4 9 18 20 32 11 14 20
33 20 42 0 9 3 18 8 20 12 5 61 157 76 237 23 123 12 319 -28 510 -20 91 -112
341 -126 341 -4 0 -11 11 -14 24 -3 13 -27 46 -54 74 -97 100 -172 116 -369
76z m151 -375 c152 -134 236 -593 147 -804 -66 -157 -163 -284 -267 -351 -16
-10 -32 -23 -36 -29 -4 -5 -8 -6 -8 -1 0 5 -8 2 -17 -6 -10 -9 -49 -28 -87
-42 -200 -80 -403 -77 -643 9 -221 79 -352 192 -353 303 0 37 59 187 108 272
18 30 32 53 33 50 0 -3 2 -21 4 -40 11 -136 85 -265 200 -350 50 -37 108 -67
150 -76 146 -33 242 -24 370 37 66 31 173 139 208 211 55 111 66 245 32 373
-28 105 -147 242 -255 293 -51 24 -146 50 -189 52 -6 1 30 24 39 25 3 1 30 13
60 27 104 49 225 84 320 95 30 3 56 7 58 8 12 10 90 -24 126 -56z"/>
<path d="M3542 4130 c-35 -62 -145 -173 -197 -200 -52 -27 -58 -29 -130 -40
-27 -4 -44 -8 -37 -9 6 0 12 -5 12 -11 0 -5 23 -41 50 -80 28 -39 50 -74 50
-79 0 -5 4 -11 8 -13 19 -8 134 -212 185 -328 34 -79 67 -164 67 -176 0 -7 4
-15 9 -18 5 -3 23 31 41 77 55 139 193 417 213 425 4 2 7 10 7 17 0 7 3 15 8
17 6 3 59 76 105 148 l17 27 -55 1 c-96 0 -182 67 -273 209 -25 40 -48 73 -51
73 -3 0 -16 -18 -29 -40z"/>
<path d="M1475 3754 c-27 -7 -69 -23 -94 -36 -57 -29 -147 -118 -184 -181 -55
-93 -99 -237 -114 -368 -9 -82 -8 -327 1 -399 4 -30 9 -75 12 -100 18 -153
110 -520 163 -645 4 -11 27 -69 51 -130 72 -186 193 -426 282 -557 21 -31 38
-59 38 -62 0 -3 6 -14 14 -23 8 -10 38 -49 67 -88 74 -98 151 -182 222 -243
38 -32 69 -44 50 -19 -6 6 -27 66 -47 132 -20 66 -44 143 -53 170 -8 28 -16
57 -18 65 -2 8 -11 44 -20 80 -9 36 -19 74 -21 85 -1 11 -12 65 -24 120 -11
55 -23 116 -26 135 -6 37 -11 69 -18 110 -3 14 -8 48 -11 75 -6 50 -8 66 -22
230 -9 109 -8 497 1 615 7 96 14 169 21 220 13 98 18 137 20 160 3 28 22 142
30 180 3 14 8 41 11 60 3 19 19 94 35 165 47 204 47 188 2 209 -100 48 -269
67 -368 40z"/>
<path d="M5245 3750 c-33 -9 -78 -26 -101 -36 l-41 -19 23 -100 c13 -55 26
-111 29 -125 2 -14 7 -36 11 -50 3 -14 7 -36 9 -50 2 -14 8 -50 14 -80 15 -71
20 -99 25 -141 3 -19 8 -52 12 -74 3 -22 8 -53 9 -70 2 -16 6 -57 9 -90 4 -33
9 -78 11 -100 23 -193 23 -632 0 -815 -2 -19 -7 -60 -9 -91 -3 -31 -8 -67 -11
-80 -3 -13 -7 -40 -9 -59 -11 -90 -58 -323 -80 -400 -8 -25 -14 -48 -15 -52 0
-5 -1 -9 -2 -10 0 -2 -2 -12 -4 -23 -5 -26 -77 -262 -102 -337 -11 -32 -16
-58 -12 -58 16 0 190 175 244 245 80 105 175 252 241 372 32 60 59 110 60 113
0 3 19 43 41 90 67 139 156 364 169 425 2 11 8 31 13 45 10 24 58 202 67 245
10 50 43 234 48 270 17 121 25 390 13 460 -3 17 -8 50 -12 75 -23 147 -89 306
-162 386 -51 56 -137 115 -188 130 -5 2 -21 6 -35 10 -52 15 -204 12 -265 -6z"/>
<path d="M2968 3666 c-21 -8 -38 -12 -38 -9 0 2 -8 -1 -18 -6 -40 -21 -188
-42 -330 -47 -68 -2 -127 -6 -133 -9 -5 -4 -9 -3 -9 2 0 4 -26 8 -58 9 -51 0
-108 4 -269 20 -39 4 -53 2 -54 -8 0 -7 -2 -20 -4 -28 -2 -8 -5 -26 -8 -40 -3
-14 -10 -43 -15 -65 -12 -45 -58 -306 -67 -375 -3 -25 -7 -58 -9 -75 -20 -152
-38 -417 -36 -540 1 -52 1 -66 -1 -87 -1 -29 11 -325 15 -344 2 -11 7 -58 11
-105 4 -46 8 -91 10 -100 2 -9 6 -40 10 -70 3 -30 11 -79 16 -109 6 -30 12
-70 15 -89 2 -19 9 -52 15 -75 5 -23 11 -54 14 -71 5 -35 12 -69 20 -95 3 -10
7 -27 9 -37 56 -279 249 -798 409 -1093 28 -52 62 -116 76 -142 l26 -48 938 0
c653 0 937 3 937 11 0 5 4 8 8 5 16 -9 262 508 288 604 2 8 31 95 64 193 53
156 137 464 154 567 3 19 8 49 11 65 35 186 43 240 49 296 2 19 7 59 10 89 23
188 30 335 30 585 0 247 -7 398 -27 565 -3 25 -9 72 -12 105 -4 33 -8 69 -10
80 -11 56 -14 76 -25 145 -7 41 -18 102 -26 135 -7 33 -16 78 -20 100 -3 22
-8 43 -10 47 -3 4 -39 4 -82 0 -88 -8 -457 -8 -487 0 -11 3 -40 9 -65 13 -25
4 -75 16 -112 27 -61 18 -69 18 -83 5 -8 -9 -15 -18 -15 -22 0 -4 -20 -38 -45
-76 -24 -38 -42 -69 -38 -69 3 0 -1 -8 -9 -17 -8 -10 -33 -52 -56 -93 -134
-250 -190 -358 -272 -525 -51 -103 -95 -183 -99 -179 -4 5 -18 34 -31 64 -13
30 -32 66 -41 80 -9 14 -19 35 -23 47 -4 12 -24 53 -44 90 -21 37 -50 93 -65
123 -62 122 -133 252 -213 384 -46 77 -84 143 -84 148 0 4 -4 8 -8 8 -5 0 -14
11 -20 25 -13 29 -14 29 -64 11z"/>
</g>
</svg>
